<?xml version="1.0" encoding="utf-8"?>
<!-- Generator: Adobe Illustrator 13.0.0, SVG Export Plug-In . SVG Version: 6.00 Build 14948)  -->
<!DOCTYPE svg PUBLIC "-//W3C//DTD SVG 1.1//EN" "http://www.w3.org/Graphics/SVG/1.1/DTD/svg11.dtd">
<svg version="1.1" xmlns="http://www.w3.org/2000/svg" xmlns:xlink="http://www.w3.org/1999/xlink" x="0px" y="0px" width="350px"
	 height="350px" viewBox="0 0 350 350" enable-background="new 0 0 350 350" xml:space="preserve">
  <path d="m305.92038,161.914108c3.695282,-13.314896 4.806885,-28.635605 4.806885,-45.720207c0,-24.503113 -9.205658,-44.105125 -24.150757,-59.021183c2.611572,-8.430099 6.099884,-27.151901 -3.483673,-51.118972c0,0 -16.907898,-5.368523 -55.151489,20.227592c-14.981171,-3.744125 -30.92511,-5.592934 -46.892303,-5.592934c-17.568329,0 -35.320389,2.237171 -51.877106,6.778961c-39.4645,-26.922838 -56.886322,-21.407806 -56.886322,-21.407806c-11.371918,28.437931 -4.34063,49.494583 -2.204613,54.723571c-13.366074,14.425358 -21.526413,32.840191 -21.526413,55.416584c0,17.043907 1.940666,32.334373 6.680122,45.623711c1.662766,4.424347 2.826706,7.092896 4.131332,9.671936c14.175369,26.454254 40.442398,42.49353 87.171906,47.530655c-6.632462,4.456924 -13.398636,12.033539 -16.140442,24.853104c-9.038239,4.323181 -37.649422,14.875366 -54.815437,-14.64978c0,0 -9.609146,-17.568329 -28.001892,-18.943878c0,0 -17.841578,-0.273254 -1.231369,11.118423c0,0 11.938187,5.625488 20.175262,26.765854c0,0 10.745193,36.057587 62.597862,24.489197l0,37.245911s-1.096481,13.174225 -13.17421,17.56369c0,0 -7.135925,4.940613 0.552322,7.681244c0,0 33.478546,2.7453 33.478546,-24.694977l0,-40.614441s-1.327896,-16.10675 6.584793,-21.705505l0,66.709442s-0.546509,15.916046 -8.78009,21.954315c0,0 -5.491791,9.876587 6.584763,7.135925c0,0 23.050812,-3.292969 24.149628,-30.186737l0.522095,-67.510559l5.540604,0l0.526749,67.510559c1.096481,26.893768 24.148453,30.186737 24.148453,30.186737c12.073074,2.740662 6.584793,-7.135925 6.584793,-7.135925c-8.232437,-6.038269 -8.780121,-21.954315 -8.780121,-21.954315l0,-66.13385c7.908035,6.15802 6.584793,21.128723 6.584793,21.128723l0,40.614502c0,27.441406 33.479721,24.694946 33.479721,24.694946c7.681274,-2.740662 0.551147,-7.681274 0.551147,-7.681274c-12.076553,-4.389435 -13.17421,-17.56369 -13.17421,-17.56369l0,-53.238708c0,-20.760101 -8.74173,-31.754135 -17.290421,-37.557526c49.835281,-4.941788 73.750015,-21.033401 84.769608,-46.035339l3.939484,-11.157974z" fill="#FFFFFF" id="cat"/>
</svg>